<mxfile host="app.diagrams.net" modified="2023-11-19T12:03:55.046Z" agent="Mozilla/5.0 (Windows NT 10.0; Win64; x64) AppleWebKit/537.36 (KHTML, like Gecko) Chrome/119.0.0.0 Safari/537.36 Edg/119.0.0.0" etag="qg8OioBHRF1tVrN-u0ls" version="22.1.3" type="device">
  <diagram id="C5RBs43oDa-KdzZeNtuy" name="Page-1">
    <mxGraphModel dx="1806" dy="907" grid="0" gridSize="10" guides="1" tooltips="1" connect="1" arrows="1" fold="1" page="1" pageScale="1" pageWidth="10000" pageHeight="10000" background="#ffffff" math="0" shadow="0">
      <root>
        <mxCell id="WIyWlLk6GJQsqaUBKTNV-0" />
        <mxCell id="WIyWlLk6GJQsqaUBKTNV-1" parent="WIyWlLk6GJQsqaUBKTNV-0" />
        <mxCell id="Xlko8xxcgdp7K__MVzFV-4" value="&lt;b style=&quot;font-size: 12px;&quot;&gt;Property&lt;/b&gt;" style="swimlane;fontStyle=0;childLayout=stackLayout;horizontal=1;startSize=26;fillColor=#dae8fc;horizontalStack=0;resizeParent=1;resizeParentMax=0;resizeLast=0;collapsible=1;marginBottom=0;whiteSpace=wrap;html=1;strokeColor=#6c8ebf;fontFamily=Verdana;fontSize=12;" parent="WIyWlLk6GJQsqaUBKTNV-1" vertex="1">
          <mxGeometry x="800" y="134" width="140" height="52" as="geometry" />
        </mxCell>
        <mxCell id="Xlko8xxcgdp7K__MVzFV-5" value="- name: string" style="text;strokeColor=none;fillColor=none;align=left;verticalAlign=top;spacingLeft=4;spacingRight=4;overflow=hidden;rotatable=0;points=[[0,0.5],[1,0.5]];portConstraint=eastwest;whiteSpace=wrap;html=1;fontFamily=Verdana;fontSize=12;" parent="Xlko8xxcgdp7K__MVzFV-4" vertex="1">
          <mxGeometry y="26" width="140" height="26" as="geometry" />
        </mxCell>
        <mxCell id="Xlko8xxcgdp7K__MVzFV-13" value="&lt;b style=&quot;font-size: 12px;&quot;&gt;PropertyManager&lt;/b&gt;" style="swimlane;fontStyle=0;childLayout=stackLayout;horizontal=1;startSize=26;fillColor=#dae8fc;horizontalStack=0;resizeParent=1;resizeParentMax=0;resizeLast=0;collapsible=1;marginBottom=0;whiteSpace=wrap;html=1;fontFamily=Verdana;strokeColor=#6c8ebf;fontSize=12;" parent="WIyWlLk6GJQsqaUBKTNV-1" vertex="1">
          <mxGeometry x="1122" y="134" width="265" height="52" as="geometry">
            <mxRectangle x="28.5" y="259" width="152" height="26" as="alternateBounds" />
          </mxGeometry>
        </mxCell>
        <mxCell id="Xlko8xxcgdp7K__MVzFV-18" value="&lt;b style=&quot;border-color: var(--border-color);&quot;&gt;Document&lt;/b&gt;" style="swimlane;fontStyle=0;childLayout=stackLayout;horizontal=1;startSize=26;fillColor=#dae8fc;horizontalStack=0;resizeParent=1;resizeParentMax=0;resizeLast=0;collapsible=1;marginBottom=0;whiteSpace=wrap;html=1;fontFamily=Verdana;strokeColor=#6c8ebf;fontSize=12;" parent="WIyWlLk6GJQsqaUBKTNV-1" vertex="1">
          <mxGeometry x="698" y="289" width="362" height="234" as="geometry" />
        </mxCell>
        <mxCell id="Xlko8xxcgdp7K__MVzFV-19" value="- documentType: DocumentType" style="text;strokeColor=none;fillColor=none;align=left;verticalAlign=top;spacingLeft=4;spacingRight=4;overflow=hidden;rotatable=0;points=[[0,0.5],[1,0.5]];portConstraint=eastwest;whiteSpace=wrap;html=1;fontFamily=Verdana;fontSize=12;" parent="Xlko8xxcgdp7K__MVzFV-18" vertex="1">
          <mxGeometry y="26" width="362" height="26" as="geometry" />
        </mxCell>
        <mxCell id="Xlko8xxcgdp7K__MVzFV-20" value="- documentNumber: string" style="text;strokeColor=none;fillColor=none;align=left;verticalAlign=top;spacingLeft=4;spacingRight=4;overflow=hidden;rotatable=0;points=[[0,0.5],[1,0.5]];portConstraint=eastwest;whiteSpace=wrap;html=1;fontFamily=Verdana;fontSize=12;" parent="Xlko8xxcgdp7K__MVzFV-18" vertex="1">
          <mxGeometry y="52" width="362" height="26" as="geometry" />
        </mxCell>
        <mxCell id="yOWJq_AtLj8SSG447ePl-4" value="- saleDate: LocalDate" style="text;strokeColor=none;fillColor=none;align=left;verticalAlign=top;spacingLeft=4;spacingRight=4;overflow=hidden;rotatable=0;points=[[0,0.5],[1,0.5]];portConstraint=eastwest;whiteSpace=wrap;html=1;fontFamily=Verdana;fontSize=12;" parent="Xlko8xxcgdp7K__MVzFV-18" vertex="1">
          <mxGeometry y="78" width="362" height="26" as="geometry" />
        </mxCell>
        <mxCell id="yOWJq_AtLj8SSG447ePl-9" value="- receiptDate: LocalDate" style="text;strokeColor=none;fillColor=none;align=left;verticalAlign=top;spacingLeft=4;spacingRight=4;overflow=hidden;rotatable=0;points=[[0,0.5],[1,0.5]];portConstraint=eastwest;whiteSpace=wrap;html=1;fontFamily=Verdana;fontSize=12;" parent="Xlko8xxcgdp7K__MVzFV-18" vertex="1">
          <mxGeometry y="104" width="362" height="26" as="geometry" />
        </mxCell>
        <mxCell id="yOWJq_AtLj8SSG447ePl-8" value="- issueDate: LocalDate" style="text;strokeColor=none;fillColor=none;align=left;verticalAlign=top;spacingLeft=4;spacingRight=4;overflow=hidden;rotatable=0;points=[[0,0.5],[1,0.5]];portConstraint=eastwest;whiteSpace=wrap;html=1;fontFamily=Verdana;fontSize=12;" parent="Xlko8xxcgdp7K__MVzFV-18" vertex="1">
          <mxGeometry y="130" width="362" height="26" as="geometry" />
        </mxCell>
        <mxCell id="yOWJq_AtLj8SSG447ePl-6" value="- splitPayment: boolean" style="text;strokeColor=none;fillColor=none;align=left;verticalAlign=top;spacingLeft=4;spacingRight=4;overflow=hidden;rotatable=0;points=[[0,0.5],[1,0.5]];portConstraint=eastwest;whiteSpace=wrap;html=1;fontFamily=Verdana;fontSize=12;" parent="Xlko8xxcgdp7K__MVzFV-18" vertex="1">
          <mxGeometry y="156" width="362" height="26" as="geometry" />
        </mxCell>
        <mxCell id="yOWJq_AtLj8SSG447ePl-49" value="- isElectronicDocument: boolean" style="text;strokeColor=none;fillColor=none;align=left;verticalAlign=top;spacingLeft=4;spacingRight=4;overflow=hidden;rotatable=0;points=[[0,0.5],[1,0.5]];portConstraint=eastwest;whiteSpace=wrap;html=1;fontFamily=Verdana;fontSize=12;" parent="Xlko8xxcgdp7K__MVzFV-18" vertex="1">
          <mxGeometry y="182" width="362" height="26" as="geometry" />
        </mxCell>
        <mxCell id="yOWJq_AtLj8SSG447ePl-5" value="- documentStatus: DocumentStatus" style="text;strokeColor=none;fillColor=none;align=left;verticalAlign=top;spacingLeft=4;spacingRight=4;overflow=hidden;rotatable=0;points=[[0,0.5],[1,0.5]];portConstraint=eastwest;whiteSpace=wrap;html=1;fontFamily=Verdana;fontSize=12;" parent="Xlko8xxcgdp7K__MVzFV-18" vertex="1">
          <mxGeometry y="208" width="362" height="26" as="geometry" />
        </mxCell>
        <mxCell id="Xlko8xxcgdp7K__MVzFV-22" value="&lt;b style=&quot;font-size: 12px;&quot;&gt;Payment&lt;/b&gt;" style="swimlane;fontStyle=0;childLayout=stackLayout;horizontal=1;startSize=26;fillColor=#dae8fc;horizontalStack=0;resizeParent=1;resizeParentMax=0;resizeLast=0;collapsible=1;marginBottom=0;whiteSpace=wrap;html=1;fontFamily=Verdana;strokeColor=#6c8ebf;fontSize=12;" parent="WIyWlLk6GJQsqaUBKTNV-1" vertex="1">
          <mxGeometry x="344" y="310" width="305" height="208" as="geometry" />
        </mxCell>
        <mxCell id="Xlko8xxcgdp7K__MVzFV-23" value="- bankAccountNumber: string" style="text;strokeColor=none;fillColor=none;align=left;verticalAlign=top;spacingLeft=4;spacingRight=4;overflow=hidden;rotatable=0;points=[[0,0.5],[1,0.5]];portConstraint=eastwest;whiteSpace=wrap;html=1;fontFamily=Verdana;fontSize=12;" parent="Xlko8xxcgdp7K__MVzFV-22" vertex="1">
          <mxGeometry y="26" width="305" height="26" as="geometry" />
        </mxCell>
        <mxCell id="Xlko8xxcgdp7K__MVzFV-24" value="- exchangeRate: double" style="text;strokeColor=none;fillColor=none;align=left;verticalAlign=top;spacingLeft=4;spacingRight=4;overflow=hidden;rotatable=0;points=[[0,0.5],[1,0.5]];portConstraint=eastwest;whiteSpace=wrap;html=1;fontFamily=Verdana;fontSize=12;" parent="Xlko8xxcgdp7K__MVzFV-22" vertex="1">
          <mxGeometry y="52" width="305" height="26" as="geometry" />
        </mxCell>
        <mxCell id="yOWJq_AtLj8SSG447ePl-41" value="- grossAmount: double" style="text;strokeColor=none;fillColor=none;align=left;verticalAlign=top;spacingLeft=4;spacingRight=4;overflow=hidden;rotatable=0;points=[[0,0.5],[1,0.5]];portConstraint=eastwest;whiteSpace=wrap;html=1;fontFamily=Verdana;fontSize=12;" parent="Xlko8xxcgdp7K__MVzFV-22" vertex="1">
          <mxGeometry y="78" width="305" height="26" as="geometry" />
        </mxCell>
        <mxCell id="yOWJq_AtLj8SSG447ePl-43" value="- netAmount: double" style="text;strokeColor=none;fillColor=none;align=left;verticalAlign=top;spacingLeft=4;spacingRight=4;overflow=hidden;rotatable=0;points=[[0,0.5],[1,0.5]];portConstraint=eastwest;whiteSpace=wrap;html=1;fontFamily=Verdana;fontSize=12;" parent="Xlko8xxcgdp7K__MVzFV-22" vertex="1">
          <mxGeometry y="104" width="305" height="26" as="geometry" />
        </mxCell>
        <mxCell id="yOWJq_AtLj8SSG447ePl-42" value="- VatAmount: double" style="text;strokeColor=none;fillColor=none;align=left;verticalAlign=top;spacingLeft=4;spacingRight=4;overflow=hidden;rotatable=0;points=[[0,0.5],[1,0.5]];portConstraint=eastwest;whiteSpace=wrap;html=1;fontFamily=Verdana;fontSize=12;" parent="Xlko8xxcgdp7K__MVzFV-22" vertex="1">
          <mxGeometry y="130" width="305" height="26" as="geometry" />
        </mxCell>
        <mxCell id="yOWJq_AtLj8SSG447ePl-40" value="- VatRate: double" style="text;strokeColor=none;fillColor=none;align=left;verticalAlign=top;spacingLeft=4;spacingRight=4;overflow=hidden;rotatable=0;points=[[0,0.5],[1,0.5]];portConstraint=eastwest;whiteSpace=wrap;html=1;fontFamily=Verdana;fontSize=12;" parent="Xlko8xxcgdp7K__MVzFV-22" vertex="1">
          <mxGeometry y="156" width="305" height="26" as="geometry" />
        </mxCell>
        <mxCell id="yOWJq_AtLj8SSG447ePl-44" value="- dueDate: LocalDate" style="text;strokeColor=none;fillColor=none;align=left;verticalAlign=top;spacingLeft=4;spacingRight=4;overflow=hidden;rotatable=0;points=[[0,0.5],[1,0.5]];portConstraint=eastwest;whiteSpace=wrap;html=1;fontFamily=Verdana;fontSize=12;" parent="Xlko8xxcgdp7K__MVzFV-22" vertex="1">
          <mxGeometry y="182" width="305" height="26" as="geometry" />
        </mxCell>
        <mxCell id="Xlko8xxcgdp7K__MVzFV-26" value="&lt;b style=&quot;font-size: 12px;&quot;&gt;DocumentHistory&lt;/b&gt;" style="swimlane;fontStyle=0;childLayout=stackLayout;horizontal=1;startSize=26;fillColor=#dae8fc;horizontalStack=0;resizeParent=1;resizeParentMax=0;resizeLast=0;collapsible=1;marginBottom=0;whiteSpace=wrap;html=1;fontFamily=Verdana;strokeColor=#6c8ebf;fontSize=12;" parent="WIyWlLk6GJQsqaUBKTNV-1" vertex="1">
          <mxGeometry x="1193" y="382" width="271" height="88" as="geometry" />
        </mxCell>
        <mxCell id="yOWJq_AtLj8SSG447ePl-76" value="&lt;span style=&quot;color: rgb(0, 0, 0); font-family: Verdana; font-size: 12px; font-style: normal; font-variant-ligatures: normal; font-variant-caps: normal; font-weight: 400; letter-spacing: normal; orphans: 2; text-align: left; text-indent: 0px; text-transform: none; widows: 2; word-spacing: 0px; -webkit-text-stroke-width: 0px; background-color: rgb(251, 251, 251); text-decoration-thickness: initial; text-decoration-style: initial; text-decoration-color: initial; float: none; display: inline !important;&quot;&gt;- modificationDate: LocalDate&lt;/span&gt;" style="text;whiteSpace=wrap;html=1;" parent="Xlko8xxcgdp7K__MVzFV-26" vertex="1">
          <mxGeometry y="26" width="271" height="36" as="geometry" />
        </mxCell>
        <mxCell id="Xlko8xxcgdp7K__MVzFV-27" value="- modifactionType: DocumentStatus" style="text;strokeColor=none;fillColor=none;align=left;verticalAlign=top;spacingLeft=4;spacingRight=4;overflow=hidden;rotatable=0;points=[[0,0.5],[1,0.5]];portConstraint=eastwest;whiteSpace=wrap;html=1;fontFamily=Verdana;fontSize=12;" parent="Xlko8xxcgdp7K__MVzFV-26" vertex="1">
          <mxGeometry y="62" width="271" height="26" as="geometry" />
        </mxCell>
        <mxCell id="Xlko8xxcgdp7K__MVzFV-30" value="&lt;b style=&quot;font-size: 12px;&quot;&gt;User&lt;/b&gt;" style="swimlane;fontStyle=0;childLayout=stackLayout;horizontal=1;startSize=26;fillColor=#dae8fc;horizontalStack=0;resizeParent=1;resizeParentMax=0;resizeLast=0;collapsible=1;marginBottom=0;whiteSpace=wrap;html=1;strokeColor=#6c8ebf;fontFamily=Verdana;fontSize=12;" parent="WIyWlLk6GJQsqaUBKTNV-1" vertex="1">
          <mxGeometry x="1454" y="251" width="140" height="78" as="geometry" />
        </mxCell>
        <mxCell id="Xlko8xxcgdp7K__MVzFV-31" value="- firstName: string" style="text;strokeColor=none;fillColor=none;align=left;verticalAlign=top;spacingLeft=4;spacingRight=4;overflow=hidden;rotatable=0;points=[[0,0.5],[1,0.5]];portConstraint=eastwest;whiteSpace=wrap;html=1;fontFamily=Verdana;fontSize=12;" parent="Xlko8xxcgdp7K__MVzFV-30" vertex="1">
          <mxGeometry y="26" width="140" height="26" as="geometry" />
        </mxCell>
        <mxCell id="Xlko8xxcgdp7K__MVzFV-32" value="- lastName: string" style="text;strokeColor=none;fillColor=none;align=left;verticalAlign=top;spacingLeft=4;spacingRight=4;overflow=hidden;rotatable=0;points=[[0,0.5],[1,0.5]];portConstraint=eastwest;whiteSpace=wrap;html=1;fontFamily=Verdana;fontSize=12;" parent="Xlko8xxcgdp7K__MVzFV-30" vertex="1">
          <mxGeometry y="52" width="140" height="26" as="geometry" />
        </mxCell>
        <mxCell id="Xlko8xxcgdp7K__MVzFV-34" value="Extends" style="endArrow=block;endSize=16;endFill=0;html=1;rounded=0;fontFamily=Verdana;fontSize=12;" parent="WIyWlLk6GJQsqaUBKTNV-1" source="Xlko8xxcgdp7K__MVzFV-13" target="Xlko8xxcgdp7K__MVzFV-30" edge="1">
          <mxGeometry width="160" relative="1" as="geometry">
            <mxPoint x="982" y="-128" as="sourcePoint" />
            <mxPoint x="1142" y="-128" as="targetPoint" />
          </mxGeometry>
        </mxCell>
        <mxCell id="yOWJq_AtLj8SSG447ePl-2" value="1..*" style="text;html=1;align=center;verticalAlign=middle;resizable=0;points=[];autosize=1;strokeColor=none;fillColor=none;fontFamily=Verdana;fontSize=12;" parent="WIyWlLk6GJQsqaUBKTNV-1" vertex="1">
          <mxGeometry x="742" y="129" width="42" height="26" as="geometry" />
        </mxCell>
        <mxCell id="yOWJq_AtLj8SSG447ePl-14" value="&lt;b style=&quot;font-size: 12px;&quot;&gt;Company&lt;/b&gt;" style="swimlane;fontStyle=0;childLayout=stackLayout;horizontal=1;startSize=26;fillColor=#dae8fc;horizontalStack=0;resizeParent=1;resizeParentMax=0;resizeLast=0;collapsible=1;marginBottom=0;whiteSpace=wrap;html=1;fontFamily=Verdana;strokeColor=#6c8ebf;fontSize=12;" parent="WIyWlLk6GJQsqaUBKTNV-1" vertex="1">
          <mxGeometry x="481" y="134" width="140" height="52" as="geometry" />
        </mxCell>
        <mxCell id="yOWJq_AtLj8SSG447ePl-15" value="- name: string" style="text;strokeColor=none;fillColor=none;align=left;verticalAlign=top;spacingLeft=4;spacingRight=4;overflow=hidden;rotatable=0;points=[[0,0.5],[1,0.5]];portConstraint=eastwest;whiteSpace=wrap;html=1;fontFamily=Verdana;fontSize=12;" parent="yOWJq_AtLj8SSG447ePl-14" vertex="1">
          <mxGeometry y="26" width="140" height="26" as="geometry" />
        </mxCell>
        <mxCell id="yOWJq_AtLj8SSG447ePl-32" value="1..*" style="text;html=1;align=center;verticalAlign=middle;resizable=0;points=[];autosize=1;strokeColor=none;fillColor=none;fontFamily=Verdana;fontSize=12;" parent="WIyWlLk6GJQsqaUBKTNV-1" vertex="1">
          <mxGeometry x="940" y="165" width="42" height="26" as="geometry" />
        </mxCell>
        <mxCell id="yOWJq_AtLj8SSG447ePl-33" value="-managedProperties" style="text;html=1;align=center;verticalAlign=middle;resizable=0;points=[];autosize=1;strokeColor=none;fillColor=none;fontFamily=Verdana;fontSize=12;" parent="WIyWlLk6GJQsqaUBKTNV-1" vertex="1">
          <mxGeometry x="937" y="129" width="140" height="26" as="geometry" />
        </mxCell>
        <mxCell id="yOWJq_AtLj8SSG447ePl-37" value="1" style="text;html=1;align=center;verticalAlign=middle;resizable=0;points=[];autosize=1;strokeColor=none;fillColor=none;fontFamily=Verdana;fontSize=12;" parent="WIyWlLk6GJQsqaUBKTNV-1" vertex="1">
          <mxGeometry x="881" y="249" width="26" height="26" as="geometry" />
        </mxCell>
        <mxCell id="yOWJq_AtLj8SSG447ePl-39" value="&lt;p style=&quot;margin: 4px 0px 0px; text-align: center; font-size: 12px;&quot;&gt;&lt;i style=&quot;font-size: 12px;&quot;&gt;&amp;lt;&amp;lt;Enumeration&amp;gt;&amp;gt;&lt;/i&gt;&lt;br style=&quot;font-size: 12px;&quot;&gt;&lt;b style=&quot;font-size: 12px;&quot;&gt;DocumentType&lt;/b&gt;&lt;/p&gt;&lt;hr style=&quot;font-size: 12px;&quot;&gt;&lt;p style=&quot;margin: 0px 0px 0px 4px; font-size: 12px;&quot;&gt;INVOICE&lt;/p&gt;&lt;p style=&quot;margin: 0px 0px 0px 4px; font-size: 12px;&quot;&gt;INTEREST_NOTE&lt;/p&gt;&lt;p style=&quot;margin: 0px 0px 0px 4px; font-size: 12px;&quot;&gt;CORRECTIVE_INVOICE&lt;/p&gt;&lt;p style=&quot;margin: 0px 0px 0px 4px; font-size: 12px;&quot;&gt;OTHER&lt;/p&gt;" style="verticalAlign=top;align=left;overflow=fill;fontSize=12;fontFamily=Verdana;html=1;whiteSpace=wrap;fillColor=#d5e8d4;strokeColor=#82b366;" parent="WIyWlLk6GJQsqaUBKTNV-1" vertex="1">
          <mxGeometry x="808" y="598" width="190" height="109" as="geometry" />
        </mxCell>
        <mxCell id="yOWJq_AtLj8SSG447ePl-45" value="" style="endArrow=diamondThin;endFill=1;endSize=24;html=1;rounded=0;" parent="WIyWlLk6GJQsqaUBKTNV-1" source="Xlko8xxcgdp7K__MVzFV-22" target="Xlko8xxcgdp7K__MVzFV-18" edge="1">
          <mxGeometry width="160" relative="1" as="geometry">
            <mxPoint x="1153" y="251" as="sourcePoint" />
            <mxPoint x="1313" y="251" as="targetPoint" />
          </mxGeometry>
        </mxCell>
        <mxCell id="yOWJq_AtLj8SSG447ePl-47" value="" style="endArrow=diamondThin;endFill=0;endSize=24;html=1;rounded=0;" parent="WIyWlLk6GJQsqaUBKTNV-1" source="Xlko8xxcgdp7K__MVzFV-4" target="Xlko8xxcgdp7K__MVzFV-18" edge="1">
          <mxGeometry width="160" relative="1" as="geometry">
            <mxPoint x="1153" y="251" as="sourcePoint" />
            <mxPoint x="1313" y="251" as="targetPoint" />
          </mxGeometry>
        </mxCell>
        <mxCell id="yOWJq_AtLj8SSG447ePl-48" value="Use" style="endArrow=open;endSize=12;dashed=1;html=1;rounded=0;entryX=0.5;entryY=0;entryDx=0;entryDy=0;" parent="WIyWlLk6GJQsqaUBKTNV-1" source="Xlko8xxcgdp7K__MVzFV-18" target="yOWJq_AtLj8SSG447ePl-39" edge="1">
          <mxGeometry width="160" relative="1" as="geometry">
            <mxPoint x="898" y="596" as="sourcePoint" />
            <mxPoint x="1058" y="596" as="targetPoint" />
          </mxGeometry>
        </mxCell>
        <mxCell id="yOWJq_AtLj8SSG447ePl-50" value="&lt;p style=&quot;margin: 4px 0px 0px; text-align: center; font-size: 12px;&quot;&gt;&lt;i style=&quot;font-size: 12px;&quot;&gt;&amp;lt;&amp;lt;Enumeration&amp;gt;&amp;gt;&lt;/i&gt;&lt;br style=&quot;font-size: 12px;&quot;&gt;&lt;b style=&quot;font-size: 12px;&quot;&gt;DocumentStatus&lt;/b&gt;&lt;/p&gt;&lt;hr style=&quot;font-size: 12px;&quot;&gt;&lt;p style=&quot;margin: 0px 0px 0px 4px; font-size: 12px;&quot;&gt;REJECTED&lt;/p&gt;&lt;p style=&quot;margin: 0px 0px 0px 4px; font-size: 12px;&quot;&gt;ACCEPTED&lt;/p&gt;&lt;p style=&quot;margin: 0px 0px 0px 4px; font-size: 12px;&quot;&gt;PENDING&lt;/p&gt;&lt;p style=&quot;margin: 0px 0px 0px 4px; font-size: 12px;&quot;&gt;EDITED&lt;/p&gt;&lt;p style=&quot;margin: 0px 0px 0px 4px; font-size: 12px;&quot;&gt;CANCELLED&lt;/p&gt;" style="verticalAlign=top;align=left;overflow=fill;fontSize=12;fontFamily=Verdana;html=1;whiteSpace=wrap;fillColor=#d5e8d4;strokeColor=#82b366;" parent="WIyWlLk6GJQsqaUBKTNV-1" vertex="1">
          <mxGeometry x="1050" y="591" width="190" height="126" as="geometry" />
        </mxCell>
        <mxCell id="yOWJq_AtLj8SSG447ePl-53" value="Use" style="endArrow=open;endSize=12;dashed=1;html=1;rounded=0;entryX=0.5;entryY=0;entryDx=0;entryDy=0;" parent="WIyWlLk6GJQsqaUBKTNV-1" source="Xlko8xxcgdp7K__MVzFV-18" target="yOWJq_AtLj8SSG447ePl-50" edge="1">
          <mxGeometry width="160" relative="1" as="geometry">
            <mxPoint x="788" y="574" as="sourcePoint" />
            <mxPoint x="948" y="574" as="targetPoint" />
          </mxGeometry>
        </mxCell>
        <mxCell id="yOWJq_AtLj8SSG447ePl-57" value="1" style="text;html=1;align=center;verticalAlign=middle;resizable=0;points=[];autosize=1;strokeColor=none;fillColor=none;" parent="WIyWlLk6GJQsqaUBKTNV-1" vertex="1">
          <mxGeometry x="1090" y="134" width="25" height="26" as="geometry" />
        </mxCell>
        <mxCell id="yOWJq_AtLj8SSG447ePl-58" value="" style="endArrow=diamondThin;endFill=0;endSize=24;html=1;rounded=0;" parent="WIyWlLk6GJQsqaUBKTNV-1" source="Xlko8xxcgdp7K__MVzFV-4" target="yOWJq_AtLj8SSG447ePl-14" edge="1">
          <mxGeometry width="160" relative="1" as="geometry">
            <mxPoint x="1153" y="251" as="sourcePoint" />
            <mxPoint x="1313" y="251" as="targetPoint" />
          </mxGeometry>
        </mxCell>
        <mxCell id="yOWJq_AtLj8SSG447ePl-59" value="" style="endArrow=open;endFill=1;endSize=12;html=1;rounded=0;" parent="WIyWlLk6GJQsqaUBKTNV-1" source="Xlko8xxcgdp7K__MVzFV-13" target="Xlko8xxcgdp7K__MVzFV-4" edge="1">
          <mxGeometry width="160" relative="1" as="geometry">
            <mxPoint x="1153" y="251" as="sourcePoint" />
            <mxPoint x="1313" y="251" as="targetPoint" />
          </mxGeometry>
        </mxCell>
        <mxCell id="yOWJq_AtLj8SSG447ePl-60" value="1" style="text;html=1;align=center;verticalAlign=middle;resizable=0;points=[];autosize=1;strokeColor=none;fillColor=none;" parent="WIyWlLk6GJQsqaUBKTNV-1" vertex="1">
          <mxGeometry x="670" y="382" width="25" height="26" as="geometry" />
        </mxCell>
        <mxCell id="yOWJq_AtLj8SSG447ePl-69" value="" style="endArrow=diamondThin;endFill=1;endSize=24;html=1;rounded=0;" parent="WIyWlLk6GJQsqaUBKTNV-1" source="Xlko8xxcgdp7K__MVzFV-26" target="Xlko8xxcgdp7K__MVzFV-18" edge="1">
          <mxGeometry width="160" relative="1" as="geometry">
            <mxPoint x="909" y="348" as="sourcePoint" />
            <mxPoint x="1069" y="348" as="targetPoint" />
          </mxGeometry>
        </mxCell>
        <mxCell id="yOWJq_AtLj8SSG447ePl-70" value="1..*" style="text;html=1;align=center;verticalAlign=middle;resizable=0;points=[];autosize=1;strokeColor=none;fillColor=none;" parent="WIyWlLk6GJQsqaUBKTNV-1" vertex="1">
          <mxGeometry x="1151" y="390" width="36" height="26" as="geometry" />
        </mxCell>
        <mxCell id="yOWJq_AtLj8SSG447ePl-72" value="" style="endArrow=open;endFill=1;endSize=12;html=1;rounded=0;exitX=0.5;exitY=0;exitDx=0;exitDy=0;" parent="WIyWlLk6GJQsqaUBKTNV-1" source="Xlko8xxcgdp7K__MVzFV-26" target="Xlko8xxcgdp7K__MVzFV-13" edge="1">
          <mxGeometry width="160" relative="1" as="geometry">
            <mxPoint x="1203" y="337" as="sourcePoint" />
            <mxPoint x="1363" y="337" as="targetPoint" />
          </mxGeometry>
        </mxCell>
        <mxCell id="yOWJq_AtLj8SSG447ePl-73" value="" style="endArrow=open;endFill=1;endSize=12;html=1;rounded=0;" parent="WIyWlLk6GJQsqaUBKTNV-1" source="Xlko8xxcgdp7K__MVzFV-26" target="Xlko8xxcgdp7K__MVzFV-30" edge="1">
          <mxGeometry width="160" relative="1" as="geometry">
            <mxPoint x="1375" y="310" as="sourcePoint" />
            <mxPoint x="1535" y="310" as="targetPoint" />
          </mxGeometry>
        </mxCell>
        <mxCell id="yOWJq_AtLj8SSG447ePl-74" value="-requester" style="text;html=1;align=center;verticalAlign=middle;resizable=0;points=[];autosize=1;strokeColor=none;fillColor=none;" parent="WIyWlLk6GJQsqaUBKTNV-1" vertex="1">
          <mxGeometry x="1457" y="340" width="73" height="26" as="geometry" />
        </mxCell>
        <mxCell id="yOWJq_AtLj8SSG447ePl-75" value="-approver" style="text;html=1;align=center;verticalAlign=middle;resizable=0;points=[];autosize=1;strokeColor=none;fillColor=none;" parent="WIyWlLk6GJQsqaUBKTNV-1" vertex="1">
          <mxGeometry x="1187" y="191" width="69" height="26" as="geometry" />
        </mxCell>
        <mxCell id="yOWJq_AtLj8SSG447ePl-77" value="Use" style="endArrow=open;endSize=12;dashed=1;html=1;rounded=0;" parent="WIyWlLk6GJQsqaUBKTNV-1" source="Xlko8xxcgdp7K__MVzFV-26" target="yOWJq_AtLj8SSG447ePl-50" edge="1">
          <mxGeometry width="160" relative="1" as="geometry">
            <mxPoint x="1294" y="482" as="sourcePoint" />
            <mxPoint x="1379" y="537" as="targetPoint" />
          </mxGeometry>
        </mxCell>
        <mxCell id="yOWJq_AtLj8SSG447ePl-79" value="&lt;p style=&quot;margin: 4px 0px 0px; text-align: center; font-size: 12px;&quot;&gt;&lt;i style=&quot;font-size: 12px;&quot;&gt;&amp;lt;&amp;lt;Enumeration&amp;gt;&amp;gt;&lt;/i&gt;&lt;br style=&quot;font-size: 12px;&quot;&gt;&lt;b style=&quot;font-size: 12px;&quot;&gt;Currency&lt;/b&gt;&lt;/p&gt;&lt;hr style=&quot;font-size: 12px;&quot;&gt;&lt;p style=&quot;margin: 0px 0px 0px 4px; font-size: 12px;&quot;&gt;PLN&lt;/p&gt;&lt;p style=&quot;margin: 0px 0px 0px 4px; font-size: 12px;&quot;&gt;EUR&lt;/p&gt;&lt;p style=&quot;margin: 0px 0px 0px 4px; font-size: 12px;&quot;&gt;CZK&lt;/p&gt;&lt;p style=&quot;margin: 0px 0px 0px 4px; font-size: 12px;&quot;&gt;GBP&lt;/p&gt;" style="verticalAlign=top;align=left;overflow=fill;fontSize=12;fontFamily=Verdana;html=1;whiteSpace=wrap;fillColor=#d5e8d4;strokeColor=#82b366;" parent="WIyWlLk6GJQsqaUBKTNV-1" vertex="1">
          <mxGeometry x="401.5" y="564" width="190" height="109" as="geometry" />
        </mxCell>
        <mxCell id="yOWJq_AtLj8SSG447ePl-80" value="Use" style="endArrow=open;endSize=12;dashed=1;html=1;rounded=0;" parent="WIyWlLk6GJQsqaUBKTNV-1" source="Xlko8xxcgdp7K__MVzFV-22" target="yOWJq_AtLj8SSG447ePl-79" edge="1">
          <mxGeometry width="160" relative="1" as="geometry">
            <mxPoint x="503" y="261.40999999999997" as="sourcePoint" />
            <mxPoint x="663" y="261.40999999999997" as="targetPoint" />
          </mxGeometry>
        </mxCell>
        <mxCell id="yOWJq_AtLj8SSG447ePl-81" value="" style="endArrow=diamondThin;endFill=0;endSize=24;html=1;rounded=0;entryX=0.269;entryY=0.004;entryDx=0;entryDy=0;entryPerimeter=0;" parent="WIyWlLk6GJQsqaUBKTNV-1" source="yOWJq_AtLj8SSG447ePl-14" target="Xlko8xxcgdp7K__MVzFV-18" edge="1">
          <mxGeometry width="160" relative="1" as="geometry">
            <mxPoint x="645" y="168" as="sourcePoint" />
            <mxPoint x="649" y="271" as="targetPoint" />
          </mxGeometry>
        </mxCell>
        <mxCell id="yOWJq_AtLj8SSG447ePl-82" value="2" style="text;html=1;align=center;verticalAlign=middle;resizable=0;points=[];autosize=1;strokeColor=none;fillColor=none;" parent="WIyWlLk6GJQsqaUBKTNV-1" vertex="1">
          <mxGeometry x="771" y="241" width="25" height="26" as="geometry" />
        </mxCell>
        <mxCell id="UTnD13J56P3j74T4f2hr-0" value="&lt;b style=&quot;font-size: 12px;&quot;&gt;DocumentScan&lt;/b&gt;" style="swimlane;fontStyle=0;childLayout=stackLayout;horizontal=1;startSize=26;fillColor=#dae8fc;horizontalStack=0;resizeParent=1;resizeParentMax=0;resizeLast=0;collapsible=1;marginBottom=0;whiteSpace=wrap;html=1;strokeColor=#6c8ebf;fontFamily=Verdana;fontSize=12;" parent="WIyWlLk6GJQsqaUBKTNV-1" vertex="1">
          <mxGeometry x="618" y="614" width="164" height="52" as="geometry" />
        </mxCell>
        <mxCell id="UTnD13J56P3j74T4f2hr-1" value="- documentScan: PDF" style="text;strokeColor=none;fillColor=none;align=left;verticalAlign=top;spacingLeft=4;spacingRight=4;overflow=hidden;rotatable=0;points=[[0,0.5],[1,0.5]];portConstraint=eastwest;whiteSpace=wrap;html=1;fontFamily=Verdana;fontSize=12;" parent="UTnD13J56P3j74T4f2hr-0" vertex="1">
          <mxGeometry y="26" width="164" height="26" as="geometry" />
        </mxCell>
        <mxCell id="UTnD13J56P3j74T4f2hr-14" value="" style="endArrow=diamondThin;endFill=0;endSize=24;html=1;rounded=0;" parent="WIyWlLk6GJQsqaUBKTNV-1" source="UTnD13J56P3j74T4f2hr-0" target="Xlko8xxcgdp7K__MVzFV-18" edge="1">
          <mxGeometry width="160" relative="1" as="geometry">
            <mxPoint x="695" y="574" as="sourcePoint" />
            <mxPoint x="855" y="574" as="targetPoint" />
          </mxGeometry>
        </mxCell>
        <mxCell id="UTnD13J56P3j74T4f2hr-15" value="1" style="text;html=1;align=center;verticalAlign=middle;resizable=0;points=[];autosize=1;strokeColor=none;fillColor=none;" parent="WIyWlLk6GJQsqaUBKTNV-1" vertex="1">
          <mxGeometry x="734" y="536" width="25" height="26" as="geometry" />
        </mxCell>
        <mxCell id="UTnD13J56P3j74T4f2hr-16" value="1" style="text;html=1;align=center;verticalAlign=middle;resizable=0;points=[];autosize=1;strokeColor=none;fillColor=none;" parent="WIyWlLk6GJQsqaUBKTNV-1" vertex="1">
          <mxGeometry x="687" y="584" width="25" height="26" as="geometry" />
        </mxCell>
      </root>
    </mxGraphModel>
  </diagram>
</mxfile>
